<svg xmlns="http://www.w3.org/2000/svg" viewBox="0 0 56 55">
<style type="text/css">
	.white-fill{fill:#FFF;}
</style>
<path class="white-fill" d="M27.99,45.2c10.41,0,12.07-10.23,12.07-10.23H15.95C15.95,34.97,17.58,45.2,27.99,45.2z"/>
	<path class="white-fill" d="M55.92,12.7c-0.08-0.6-0.23-1.24-0.47-1.87s-0.56-1.25-1-1.84c-0.22-0.29-0.46-0.57-0.74-0.83
		c-0.42-0.4-0.86-0.73-1.33-1c-1.44-0.83-3.03-1.05-4.3-1.05c-0.32,0-0.63,0.01-0.9,0.04c-0.41,0.03-0.77,0.08-1.04,0.13
		c-0.27,0.05-0.45,0.09-0.52,0.11c-0.01-0.02-0.02-0.06-0.03-0.11c-0.03-0.09-0.07-0.23-0.13-0.4c-0.06-0.17-0.14-0.37-0.24-0.6
		c-0.05-0.11-0.1-0.23-0.16-0.36c-0.18-0.37-0.4-0.79-0.67-1.21C44.2,3.42,44,3.13,43.77,2.85c-0.11-0.14-0.24-0.29-0.36-0.43
		c-0.51-0.56-1.12-1.09-1.84-1.51c-0.23-0.13-0.47-0.25-0.73-0.36c-0.25-0.11-0.52-0.2-0.8-0.28c-0.33-0.09-0.65-0.16-0.97-0.2
		C38.74,0.02,38.42,0,38.11,0h0c-0.55,0-1.08,0.06-1.59,0.17c-1.27,0.26-2.37,0.8-3.16,1.34c-0.16,0.11-0.3,0.22-0.43,0.32
		c-0.83,0.68-1.48,1.59-1.96,2.7C30,4.42,29.01,4.35,28,4.35h0c-1.01,0-2,0.07-2.98,0.18c-0.48-1.1-1.13-2.02-1.96-2.7
		C22.02,0.98,20.08,0,17.89,0c-0.63,0-1.27,0.08-1.93,0.27c-0.56,0.16-1.07,0.38-1.53,0.65C11.53,2.59,10.49,6,10.38,6.38
		C10.18,6.33,9.21,6.1,7.91,6.1c-1.28,0-2.86,0.22-4.3,1.05c-0.46,0.27-0.91,0.59-1.33,1c-2.19,2.12-2.47,5.22-2.19,6.93
		c0.34,2.09,1.82,4.04,4.19,5.71c-1.04,2.76-1.61,5.76-1.61,8.88c0,3.5,0.71,6.83,1.99,9.86c0.48,1.14,1.04,2.23,1.68,3.27
		c0.42,0.7,0.88,1.37,1.36,2.02c0.72,0.97,1.51,1.88,2.37,2.73c0.01,0.01,0.01,0.01,0.02,0.02c0.86,0.86,1.78,1.66,2.76,2.39
		C17.07,53.13,22.32,55,28,55h0c8.3,0,15.68-4,20.29-10.17c0.49-0.65,0.94-1.32,1.36-2.02c0.63-1.04,1.2-2.14,1.68-3.27
		c1.28-3.03,1.99-6.36,1.99-9.86c0-1.03-0.08-2.04-0.2-3.04c-0.09-0.71-0.2-1.41-0.34-2.1c-0.27-1.28-0.61-2.54-1.06-3.75
		c0.59-0.41,1.11-0.84,1.58-1.29c0.04-0.03,0.07-0.07,0.11-0.1c0.19-0.18,0.36-0.36,0.53-0.55c0.05-0.05,0.09-0.1,0.14-0.15
		c0.19-0.22,0.38-0.45,0.54-0.67c0.23-0.31,0.43-0.63,0.6-0.96c0.34-0.65,0.58-1.32,0.69-2C56.01,14.44,56.04,13.6,55.92,12.7z
		 M35.46,4.93C35.92,4.56,37,4,38.11,4c0.29,0,0.56,0.04,0.83,0.11c0.22,0.06,0.43,0.15,0.63,0.27c0.49,0.28,0.89,0.7,1.22,1.15
		c0.55,0.75,0.88,1.57,0.99,1.96l1.07,3.7l3.74-0.92c0,0,0.01,0,0.03-0.01c0.14-0.03,0.73-0.15,1.47-0.15
		c0.64,0,1.56,0.09,2.31,0.52c0.2,0.12,0.38,0.25,0.54,0.41c1.11,1.08,1.11,2.86,1.02,3.4c-0.05,0.29-0.17,0.6-0.36,0.93
		c-0.29,0.49-0.75,1.01-1.37,1.53s-1.41,1.06-2.36,1.57c-0.63,0.34-1.34,0.68-2.12,1c-0.39,0.16-0.8,0.32-1.23,0.47
		c-2.13,0.76-4.73,1.39-7.77,1.79c-0.47-1.13-0.87-2.22-1.21-3.27c-0.34-1.04-0.61-2.04-0.83-2.98C33.39,9.83,34.1,6.05,35.46,4.93z
		 M4.04,14.43c-0.09-0.54-0.09-2.33,1.02-3.4c0.17-0.16,0.34-0.29,0.54-0.41c0.75-0.43,1.67-0.52,2.31-0.52
		c0.86,0,1.5,0.16,1.51,0.16l3.74,0.92l1.07-3.7c0.18-0.61,0.92-2.36,2.21-3.11c0.2-0.12,0.41-0.2,0.63-0.27
		C17.32,4.04,17.6,4,17.89,4c1.11,0,2.19,0.56,2.65,0.93c1.82,1.49,2.47,7.72-1.29,16.79C9.5,20.44,4.42,16.75,4.04,14.43z M28,51
		C16.24,51,6.68,41.43,6.68,29.68c0-2.42,0.42-4.73,1.17-6.9c3.65,1.64,8.4,2.8,13.88,3.22c3.21-6.7,4.59-12.91,4.21-17.54
		c0.68-0.07,1.37-0.1,2.07-0.1s1.39,0.04,2.07,0.1C30.04,8.82,30.01,9.19,30,9.58c-0.02,1,0.03,2.06,0.16,3.17
		c0.45,3.9,1.82,8.45,4.12,13.25c0.76-0.06,1.5-0.13,2.23-0.22c2.92-0.34,5.6-0.9,7.98-1.63c1.32-0.41,2.54-0.87,3.66-1.37
		c0.74,2.17,1.17,4.48,1.17,6.9C49.32,41.43,39.76,51,28,51z"/>
</svg>
