<svg xmlns="http://www.w3.org/2000/svg" viewBox="0 0 56 55">
<style type="text/css">
	.body-fill{fill:#FFFFC5;}
	.body-outline{fill:#FFFF48;}
	.eye-fill{fill:#FCCEFF;}
	.eye-outline{fill:#EF08FF;}
</style>
	<path class="body-fill" d="M28,55L28,55C14.01,55,2.68,43.66,2.68,29.68v0C2.68,15.69,14.01,4.35,28,4.35h0
	c13.99,0,25.32,11.34,25.32,25.32v0C53.32,43.66,41.99,55,28,55z"/>
	<path d="M15.95,34.97h24.11c0,0-1.66,10.23-12.07,10.23S15.95,34.97,15.95,34.97z"/>
	<path class="body-fill" d="M28,8.35c11.76,0,21.32,9.57,21.32,21.32S39.76,51,28,51C16.24,51,6.68,41.43,6.68,29.68S16.24,8.35,28,8.35
	M28,4.35L28,4.35c-13.99,0-25.32,11.34-25.32,25.32S14.01,55,28,55h0c13.99,0,25.32-11.34,25.32-25.32S41.99,4.35,28,4.35L28,4.35z
	"/>
	<path class="eye-fill" d="M36.75,21.72c9.75-1.28,14.83-4.97,15.21-7.29c0.09-0.54,0.09-2.33-1.02-3.4c-0.17-0.16-0.34-0.29-0.54-0.41
	c-0.75-0.43-1.67-0.52-2.31-0.52c-0.86,0-1.5,0.16-1.51,0.16l-3.74,0.92l-1.07-3.7c-0.18-0.61-0.92-2.36-2.21-3.11
	c-0.2-0.12-0.41-0.2-0.63-0.27C38.68,4.04,38.4,4,38.11,4C37,4,35.92,4.56,35.46,4.93C33.65,6.42,32.99,12.65,36.75,21.72z"/>
	<path class="eye-outline" d="M53.72,8.15c-0.42-0.4-0.86-0.73-1.33-1c-1.44-0.83-3.03-1.05-4.3-1.05c-1.29,0-2.27,0.23-2.47,0.28
	C45.51,6,44.47,2.59,41.56,0.91c-0.46-0.27-0.97-0.49-1.53-0.65C39.39,0.08,38.74,0,38.11,0c-2.19,0-4.13,0.98-5.18,1.84
	c-4.29,3.51-3.9,13.21,1.35,24.16c12.13-0.94,20.73-5.46,21.63-10.92C56.19,13.37,55.91,10.27,53.72,8.15z M38.11,4
	c0.29,0,0.56,0.04,0.83,0.11c0.22,0.06,0.43,0.15,0.63,0.27c1.3,0.75,2.04,2.5,2.21,3.11l1.07,3.7l3.74-0.92
	c0.01,0,0.65-0.16,1.51-0.16c0.64,0,1.56,0.09,2.31,0.52c0.2,0.12,0.38,0.25,0.54,0.41c1.11,1.08,1.11,2.86,1.02,3.4
	c-0.38,2.32-5.46,6-15.21,7.29c-3.76-9.07-3.1-15.3-1.29-16.79C35.92,4.56,37,4,38.11,4z"/>
	<path class="eye-fill" d="M19.25,21.72C9.5,20.44,4.42,16.75,4.04,14.43c-0.09-0.54-0.09-2.33,1.02-3.4c0.17-0.16,0.34-0.29,0.54-0.41
	c0.75-0.43,1.67-0.52,2.31-0.52c0.86,0,1.5,0.16,1.51,0.16l3.74,0.92l1.07-3.7c0.18-0.61,0.92-2.36,2.21-3.11
	c0.2-0.12,0.41-0.2,0.63-0.27C17.32,4.04,17.6,4,17.89,4c1.11,0,2.19,0.56,2.65,0.93C22.35,6.42,23.01,12.65,19.25,21.72z"/>
	<path class="eye-outline" d="M0.09,15.08c0.9,5.46,9.5,9.98,21.63,10.92c5.25-10.96,5.64-20.66,1.35-24.16C22.02,0.98,20.08,0,17.89,0
	c-0.63,0-1.27,0.08-1.93,0.27c-0.56,0.16-1.07,0.38-1.53,0.65C11.53,2.59,10.49,6,10.38,6.38C10.18,6.33,9.21,6.1,7.91,6.1
	c-1.28,0-2.86,0.22-4.3,1.05c-0.46,0.27-0.91,0.59-1.33,1C0.09,10.27-0.19,13.37,0.09,15.08z M20.54,4.93
	c1.82,1.49,2.47,7.72-1.29,16.79C9.5,20.44,4.42,16.75,4.04,14.43c-0.09-0.54-0.09-2.33,1.02-3.4c0.17-0.16,0.34-0.29,0.54-0.41
	c0.75-0.43,1.67-0.52,2.31-0.52c0.86,0,1.5,0.16,1.51,0.16l3.74,0.92l1.07-3.7c0.18-0.61,0.92-2.36,2.21-3.11
	c0.2-0.12,0.41-0.2,0.63-0.27C17.32,4.04,17.6,4,17.89,4C19,4,20.08,4.56,20.54,4.93z"/>
</svg>
