<?xml version="1.0" encoding="utf-8"?>
<!-- Generator: Adobe Illustrator 19.2.1, SVG Export Plug-In . SVG Version: 6.00 Build 0)  -->
<svg version="1.1" id="Layer_1" xmlns="http://www.w3.org/2000/svg" xmlns:xlink="http://www.w3.org/1999/xlink" x="0px" y="0px"
	 viewBox="0 0 38 38" style="enable-background:new 0 0 38 38;" xml:space="preserve">
<style type="text/css">
	.st0{fill:#EF08FF;}
</style>
<path class="st0" d="M37.41,34.59l-7.07-7.07C32.63,24.62,34,20.97,34,17c0-9.39-7.61-17-17-17S0,7.61,0,17c0,9.39,7.61,17,17,17
	c3.97,0,7.62-1.37,10.51-3.66l7.07,7.07C34.98,37.8,35.49,38,36,38s1.02-0.2,1.41-0.59C38.2,36.63,38.2,35.37,37.41,34.59z M17,30
	C9.83,30,4,24.17,4,17S9.83,4,17,4s13,5.83,13,13S24.17,30,17,30z"/>
</svg>
