<svg xmlns="http://www.w3.org/2000/svg" viewBox="0 0 104 76">
<path d="M45.12,35.88L30.36,21.12c-0.59-0.59-1.35-0.88-2.12-0.88s-1.54,0.29-2.12,0.88c-1.17,1.17-1.17,3.07,0,4.24L35.76,35H3
c-1.66,0-3,1.34-3,3c0,1.66,1.34,3,3,3h32.76l-9.64,9.64c-1.17,1.17-1.17,3.07,0,4.24c0.59,0.59,1.35,0.88,2.12,0.88
c0.77,0,1.54-0.29,2.12-0.88l14.76-14.76C46.29,38.95,46.29,37.05,45.12,35.88z"/>
<path d="M66,0L66,0c-9.82,0-18.76,3.73-25.5,9.84c-1.27,1.15-1.35,3.13-0.13,4.33l0.06,0.06c1.13,1.12,2.93,1.12,4.11,0.05
c6.04-5.47,14.16-8.67,23.02-8.25C83.62,6.81,96.8,19.68,97.92,35.71C99.22,54.39,84.4,70,66,70c-8.25,0-15.77-3.14-21.45-8.28
c-1.18-1.07-2.98-1.08-4.12,0.04c-0.02,0.02-0.04,0.04-0.06,0.06c-1.22,1.21-1.15,3.18,0.13,4.33C47.24,72.27,56.18,76,66,76h0
c20.99,0,38-17.01,38-38v0C104,17.01,86.99,0,66,0z"/>
</svg>
